mtllib PlasticPipe.mtl

v 6.000000 4.000000 4.000000
v 6.000000 -4.000000 4.000000
v 8.000000 4.000000 4.000000
v 8.000000 -4.000000 4.000000
v 8.000000 4.000000 -4.000000
v 8.000000 -4.000000 -4.000000
v 6.000000 4.000000 -4.000000
v 6.000000 -4.000000 -4.000000
v 6.000000 2.000000 2.000000
v 6.000000 2.000000 -2.000000
v 6.000000 -2.000000 2.000000
v 6.000000 -2.000000 -2.000000
v -2.000000 2.000000 2.000000
v -2.000000 2.000000 -2.000000
v -2.000000 -2.000000 2.000000
v -2.000000 -2.000000 -2.000000
v 2.000000 2.000000 2.000000
v 2.000000 2.000000 -2.000000
v 2.000000 -2.000000 2.000000
v 2.000000 -2.000000 -2.000000
v 8.000000 2.000000 2.000000
v 8.000000 2.000000 -2.000000
v 8.000000 -2.000000 2.000000
v 8.000000 -2.000000 -2.000000
# 24 vertices

vt 0.500000 0.375000
vt 0.250000 0.125000
vt 0.500000 0.125000
vt 0.500000 0.062500
vt 0.250000 0.062500
vt 0.750000 0.125000
vt 0.750000 0.062500
vt 0.000000 0.062500
vt 0.000000 0.125000
vt 0.250000 0.375000
vt 0.000000 0.375000
vt 1.000000 0.062500
vt 1.000000 0.125000
vt 0.500000 0.718750
vt 0.250000 0.468750
vt 0.500000 0.468750
vt 0.500000 0.406250
vt 0.250000 0.406250
vt 0.750000 0.468750
vt 0.750000 0.406250
vt 0.000000 0.406250
vt 0.000000 0.468750
vt 0.250000 0.718750
vt 0.000000 0.718750
vt 1.000000 0.406250
vt 1.000000 0.468750
vt 0.625000 0.875000
vt 0.625000 0.750000
vt 0.750000 0.875000
vt 0.750000 1.000000
vt 0.625000 1.000000
vt 0.750000 0.750000
vt 0.875000 0.875000
vt 0.500000 0.875000
vt 0.500000 0.750000
vt 1.000000 0.875000
vt 0.875000 0.750000
vt 1.000000 0.750000
vt 0.875000 1.000000
vt 0.125000 0.875000
vt 0.125000 0.750000
vt 0.250000 0.875000
vt 0.250000 1.000000
vt 0.125000 1.000000
vt 0.250000 0.750000
vt 0.375000 0.875000
vt 0.000000 0.875000
vt 0.000000 0.750000
vt 0.375000 0.750000
vt 0.375000 1.000000
vt 0.718750 0.718750
vt 0.531250 0.593750
vt 0.718750 0.593750
vt 0.531250 0.718750
vt 0.718750 0.468750
vt 0.906250 0.593750
vt 0.531250 0.468750
vt 0.906250 0.718750
vt 0.906250 0.468750
vt 0.750000 0.375000
# 60 texture coordinates

vn -0.666667 0.666667 0.333333
vn -0.666667 -0.666667 -0.333333
vn -0.408248 -0.408248 0.816497
vn 0.408248 0.408249 0.816496
vn 0.666667 -0.666666 0.333334
vn 0.666667 0.666667 -0.333333
vn 0.408248 -0.408249 -0.816496
vn -0.408248 0.408248 -0.816497
vn 0.577350 0.577350 0.577350
vn 0.666667 -0.333333 0.666667
vn -0.577350 0.577350 0.577350
vn 0.333333 -0.666667 -0.666667
vn -0.408248 -0.816497 0.408248
vn -0.816497 -0.408248 -0.408248
# 14 normals

g gripP
usemtl cable
s 1
f 1/60/1 8/3/2 2/6/3
f 2/2/3 3/4/4 1/3/1
f 2/2/3 4/5/5 3/4/4
f 2/6/3 8/3/2 4/7/5
f 3/8/4 5/5/6 1/9/1
f 4/9/5 5/10/6 3/11/4
f 4/9/5 6/2/7 5/10/6
f 4/7/5 8/3/2 6/4/7
f 5/5/6 7/2/8 1/9/1
f 6/6/7 7/12/8 5/13/6
f 6/6/7 8/7/2 7/12/8
f 7/1/8 8/3/2 1/60/1
# 12 triangles in group

g gripI
usemtl cable
f 1/1/1 8/2/2 2/3/3
f 2/2/3 3/4/4 1/3/1
f 2/2/3 4/5/5 3/4/4
f 2/6/3 8/3/2 4/7/5
f 3/8/4 5/5/6 1/9/1
f 4/9/5 5/10/6 3/11/4
f 4/9/5 6/2/7 5/10/6
f 4/7/5 8/3/2 6/4/7
f 5/5/6 7/2/8 1/9/1
f 6/6/7 7/12/8 5/13/6
f 6/6/7 8/7/2 7/12/8
f 7/10/8 8/2/2 1/1/1
# 12 triangles in group

g gripO
usemtl cable
f 1/14/1 8/15/2 2/16/3
f 2/15/3 3/17/4 1/16/1
f 2/15/3 4/18/5 3/17/4
f 2/19/3 8/16/2 4/20/5
f 3/21/4 5/18/6 1/22/1
f 4/22/5 5/23/6 3/24/4
f 4/22/5 6/15/7 5/23/6
f 4/20/5 8/16/2 6/17/7
f 5/18/6 7/15/8 1/22/1
f 6/19/7 7/25/8 5/26/6
f 6/19/7 8/20/2 7/25/8
f 7/23/8 8/15/2 1/14/1
# 12 triangles in group

g interface
usemtl cable
f 9/27/9 11/28/10 10/29/6
f 10/30/6 17/27/11 9/29/9
f 10/30/6 18/31/8 17/27/11
f 10/29/6 12/32/12 18/33/8
f 17/34/11 11/28/10 9/27/9
f 17/34/11 19/35/13 11/28/10
f 17/36/11 20/37/14 19/38/13
f 18/33/8 20/37/14 17/36/11
f 11/28/10 12/32/12 10/29/6
f 19/30/13 12/33/12 11/39/10
f 19/30/13 20/29/14 12/33/12
f 12/32/12 20/37/14 18/33/8
# 12 triangles in group

g cable
usemtl cable
f 21/27/9 23/28/10 22/29/6
f 22/51/6 17/52/11 21/53/9
f 22/51/6 18/54/8 17/52/11
f 22/53/6 24/55/12 18/56/8
f 17/52/11 23/55/10 21/53/9
f 17/52/11 19/57/13 23/55/10
f 17/36/11 20/37/14 19/38/13
f 18/33/8 20/37/14 17/36/11
f 23/28/10 24/32/12 22/29/6
f 19/51/13 24/56/12 23/58/10
f 19/51/13 20/53/14 24/56/12
f 24/55/12 20/59/14 18/56/8
# 12 triangles in group

g base
usemtl cable
f 17/40/9 19/41/10 18/42/6
f 18/43/6 13/40/11 17/42/9
f 18/43/6 14/44/8 13/40/11
f 18/42/6 20/45/12 14/46/8
f 13/47/11 19/41/10 17/40/9
f 13/47/11 15/48/13 19/41/10
f 13/34/11 16/49/14 15/35/13
f 14/46/8 16/49/14 13/34/11
f 19/41/10 20/45/12 18/42/6
f 15/43/13 20/46/12 19/50/10
f 15/43/13 16/42/14 20/46/12
f 20/45/12 16/49/14 14/46/8
# 12 triangles in group

# 72 triangles total

